<svg enable-background="new 0 0 128 128" height="128" viewBox="0 0 128 128" width="128" xmlns="http://www.w3.org/2000/svg"><g fill="#282d33"><path d="m53.401 57.76-.002-4 14.663-.006.001-14.84h4l-.001 18.838z"/><path d="m47.029 43.549h25.884v4h-25.884z" transform="matrix(.7033 .7109 -.7109 .7033 50.1748 -29.1186)"/><path d="m25.582 41.264h-4v-18.838l18.661-.009.002 4-14.663.007z"/><path d="m20.377 32.478h26.307v4h-26.307z" transform="matrix(.7033 .7109 -.7109 .7033 34.4583 -13.6067)"/><path d="m127.478 78.139h-4v-72.734c0-.774-.615-1.405-1.371-1.405h-116.264c-.754 0-1.367.63-1.367 1.405v72.732h-4v-72.732c0-2.98 2.407-5.405 5.367-5.405h116.264c2.962 0 5.371 2.425 5.371 5.405z"/><path d="m72.418 68.864h-61.02v-57.664h105.029v37.752h-4v-33.752h-97.029v49.664h57.02z"/><path d="m72.418 94.802h-65.985c-3.043 0-6.029-3.096-6.029-6.25v-12.489h72.015v4h-68.016v8.489c0 .946 1.176 2.25 2.029 2.25h65.985v4z"/><path d="m122.414 94.803h-6.321v-4h6.321c.677 0 1.183-1.097 1.183-2.078v-8.662h-7.502v-4h11.502v12.662c0 2.987-1.939 6.078-5.183 6.078z"/><path d="m45.431 110.897-1.607-3.662c1.347-.591 2.408-1.094 2.989-1.415l.171-.096c.246-.137.552-.307.617-.374.038-.05.19-.325.442-1.608.298-1.522.262-4.259.23-6.673-.022-1.662-.043-3.231.047-4.346l3.987.322c-.075.927-.056 2.405-.035 3.971.036 2.736.074 5.566-.305 7.495-.576 2.94-1.198 3.683-3.037 4.707l-.172.096c-.887.492-2.298 1.132-3.327 1.583z"/><path d="m41.251 106.855h31.167v4h-31.167z"/><path d="m112.209 128h-30.244c-2.293 0-4.159-1.878-4.159-4.186v-64.415c0-2.308 1.866-4.185 4.159-4.185h30.244c2.293 0 4.158 1.877 4.158 4.185v64.416c0 2.307-1.865 4.185-4.158 4.185zm-30.244-68.786c-.075 0-.159.076-.159.185v64.416c0 .111.082.186.159.186h30.244c.086 0 .158-.085.158-.186v-64.416c0-.1-.072-.185-.158-.185z"/><path d="m80.544 113.105h33.085v4h-33.085z"/><path d="m80.544 65.564h33.085v4h-33.085z"/></g></svg>